<svg width="360" height="360" viewBox="0 0 360 360" fill="none" xmlns="http://www.w3.org/2000/svg">
<g style="mix-blend-mode:darken">
<rect width="360" height="360" fill="#FF9478"/>
<path d="M71.7344 253V216.031H83.1094C86.3594 216.031 89.2624 216.768 91.8184 218.24C94.3913 219.696 96.3971 221.778 97.8359 224.486C99.2747 227.178 99.9941 230.242 99.9941 233.678V235.379C99.9941 238.815 99.2832 241.87 97.8613 244.545C96.4564 247.219 94.4674 249.293 91.8945 250.766C89.3216 252.238 86.4186 252.983 83.1855 253H71.7344ZM79.3516 222.201V246.881H83.0332C86.0124 246.881 88.2891 245.908 89.8633 243.961C91.4375 242.014 92.2415 239.23 92.2754 235.607V233.652C92.2754 229.895 91.4967 227.051 89.9395 225.121C88.3822 223.174 86.1055 222.201 83.1094 222.201H79.3516ZM120.992 253C120.654 252.34 120.408 251.519 120.256 250.537C118.479 252.518 116.168 253.508 113.324 253.508C110.633 253.508 108.398 252.729 106.621 251.172C104.861 249.615 103.98 247.651 103.98 245.281C103.98 242.37 105.055 240.135 107.205 238.578C109.372 237.021 112.495 236.234 116.574 236.217H119.951V234.643C119.951 233.373 119.621 232.357 118.961 231.596C118.318 230.834 117.294 230.453 115.889 230.453C114.653 230.453 113.68 230.749 112.969 231.342C112.275 231.934 111.928 232.747 111.928 233.779H104.59C104.59 232.188 105.081 230.715 106.062 229.361C107.044 228.007 108.432 226.949 110.227 226.188C112.021 225.409 114.035 225.02 116.27 225.02C119.655 225.02 122.338 225.874 124.318 227.584C126.316 229.277 127.314 231.663 127.314 234.744V246.652C127.331 249.259 127.695 251.231 128.406 252.568V253H120.992ZM114.924 247.896C116.007 247.896 117.006 247.66 117.92 247.186C118.834 246.695 119.511 246.043 119.951 245.23V240.508H117.209C113.536 240.508 111.581 241.777 111.344 244.316L111.318 244.748C111.318 245.662 111.64 246.415 112.283 247.008C112.926 247.6 113.807 247.896 114.924 247.896ZM141.736 218.773V225.527H146.434V230.91H141.736V244.621C141.736 245.637 141.931 246.365 142.32 246.805C142.71 247.245 143.454 247.465 144.555 247.465C145.367 247.465 146.087 247.406 146.713 247.287V252.848C145.274 253.288 143.793 253.508 142.27 253.508C137.124 253.508 134.5 250.91 134.398 245.713V230.91H130.387V225.527H134.398V218.773H141.736ZM166.441 253C166.103 252.34 165.857 251.519 165.705 250.537C163.928 252.518 161.617 253.508 158.773 253.508C156.082 253.508 153.848 252.729 152.07 251.172C150.31 249.615 149.43 247.651 149.43 245.281C149.43 242.37 150.505 240.135 152.654 238.578C154.821 237.021 157.944 236.234 162.023 236.217H165.4V234.643C165.4 233.373 165.07 232.357 164.41 231.596C163.767 230.834 162.743 230.453 161.338 230.453C160.102 230.453 159.129 230.749 158.418 231.342C157.724 231.934 157.377 232.747 157.377 233.779H150.039C150.039 232.188 150.53 230.715 151.512 229.361C152.493 228.007 153.882 226.949 155.676 226.188C157.47 225.409 159.484 225.02 161.719 225.02C165.104 225.02 167.787 225.874 169.768 227.584C171.765 229.277 172.764 231.663 172.764 234.744V246.652C172.781 249.259 173.145 251.231 173.855 252.568V253H166.441ZM160.373 247.896C161.456 247.896 162.455 247.66 163.369 247.186C164.283 246.695 164.96 246.043 165.4 245.23V240.508H162.658C158.985 240.508 157.03 241.777 156.793 244.316L156.768 244.748C156.768 245.662 157.089 246.415 157.732 247.008C158.376 247.6 159.256 247.896 160.373 247.896ZM178.883 253V216.031H191.832C196.318 216.031 199.72 216.895 202.039 218.621C204.358 220.331 205.518 222.844 205.518 226.162C205.518 227.973 205.052 229.573 204.121 230.961C203.19 232.332 201.895 233.339 200.236 233.982C202.132 234.456 203.622 235.413 204.705 236.852C205.805 238.29 206.355 240.051 206.355 242.133C206.355 245.688 205.221 248.379 202.953 250.207C200.685 252.035 197.452 252.966 193.254 253H178.883ZM186.5 236.902V246.881H193.025C194.82 246.881 196.216 246.458 197.215 245.611C198.23 244.748 198.738 243.563 198.738 242.057C198.738 238.671 196.986 236.953 193.482 236.902H186.5ZM186.5 231.52H192.137C195.979 231.452 197.9 229.92 197.9 226.924C197.9 225.248 197.41 224.046 196.428 223.318C195.463 222.574 193.931 222.201 191.832 222.201H186.5V231.52ZM227.531 253C227.193 252.34 226.947 251.519 226.795 250.537C225.018 252.518 222.707 253.508 219.863 253.508C217.172 253.508 214.938 252.729 213.16 251.172C211.4 249.615 210.52 247.651 210.52 245.281C210.52 242.37 211.594 240.135 213.744 238.578C215.911 237.021 219.034 236.234 223.113 236.217H226.49V234.643C226.49 233.373 226.16 232.357 225.5 231.596C224.857 230.834 223.833 230.453 222.428 230.453C221.192 230.453 220.219 230.749 219.508 231.342C218.814 231.934 218.467 232.747 218.467 233.779H211.129C211.129 232.188 211.62 230.715 212.602 229.361C213.583 228.007 214.971 226.949 216.766 226.188C218.56 225.409 220.574 225.02 222.809 225.02C226.194 225.02 228.877 225.874 230.857 227.584C232.855 229.277 233.854 231.663 233.854 234.744V246.652C233.87 249.259 234.234 251.231 234.945 252.568V253H227.531ZM221.463 247.896C222.546 247.896 223.545 247.66 224.459 247.186C225.373 246.695 226.05 246.043 226.49 245.23V240.508H223.748C220.075 240.508 218.12 241.777 217.883 244.316L217.857 244.748C217.857 245.662 218.179 246.415 218.822 247.008C219.465 247.6 220.346 247.896 221.463 247.896ZM250.916 247.592C252.27 247.592 253.37 247.219 254.217 246.475C255.063 245.73 255.503 244.74 255.537 243.504H262.418C262.401 245.366 261.893 247.076 260.895 248.633C259.896 250.173 258.525 251.375 256.781 252.238C255.055 253.085 253.142 253.508 251.043 253.508C247.116 253.508 244.018 252.264 241.75 249.775C239.482 247.27 238.348 243.817 238.348 239.416V238.934C238.348 234.702 239.473 231.325 241.725 228.803C243.976 226.281 247.065 225.02 250.992 225.02C254.428 225.02 257.179 226.001 259.244 227.965C261.326 229.911 262.384 232.51 262.418 235.76H255.537C255.503 234.338 255.063 233.187 254.217 232.307C253.37 231.41 252.253 230.961 250.865 230.961C249.156 230.961 247.861 231.587 246.98 232.84C246.117 234.076 245.686 236.09 245.686 238.883V239.645C245.686 242.471 246.117 244.503 246.98 245.738C247.844 246.974 249.156 247.592 250.916 247.592ZM276.586 241.98L273.945 244.621V253H266.607V214H273.945V235.607L275.367 233.779L282.4 225.527H291.211L281.283 236.979L292.074 253H283.645L276.586 241.98Z" fill="black"/>
<path d="M259.388 46.5865C263.942 46.5865 267.635 50.3235 267.635 54.9224C267.635 59.5213 263.942 63.2583 259.388 63.2583C254.855 63.2583 251.14 59.5213 251.14 54.9224C251.14 50.3235 254.855 46.5865 259.388 46.5865Z" fill="#FF5023"/>
<path d="M209.704 121.035C214.237 121.035 217.952 124.772 217.952 129.371C217.952 133.969 214.237 137.706 209.704 137.706C205.15 137.706 201.457 133.969 201.457 129.371C201.457 124.772 205.15 121.035 209.704 121.035Z" fill="#FF5023"/>
<path d="M144.586 95.4963C149.141 95.4963 152.834 99.2332 152.834 103.832C152.834 108.431 149.141 112.168 144.586 112.168C140.054 112.168 136.339 108.431 136.339 103.832C136.339 99.2332 140.054 95.4963 144.586 95.4963Z" fill="#FF5023"/>
<path d="M259.388 35.1106C270.2 35.1106 279 43.9992 279 54.9224C279 65.8455 270.2 74.7342 259.388 74.7342C257.862 74.7342 256.403 74.5354 254.965 74.2035L225.712 117.962C227.967 121.19 229.316 125.126 229.316 129.371C229.316 140.294 220.516 149.183 209.704 149.183C198.892 149.183 190.091 140.294 190.091 129.371C190.091 128.951 190.135 128.553 190.157 128.133L160.086 115.928C156.505 120.615 150.888 123.645 144.586 123.645C142.442 123.645 140.363 123.291 138.417 122.627L114.383 157.077C117.39 160.57 119.225 165.103 119.225 170.056C119.225 181.001 110.425 189.889 99.6131 189.889C88.801 189.889 80 181 80 170.055C80 159.132 88.8003 150.243 99.6124 150.243C101.403 150.243 103.106 150.508 104.742 150.972L129.153 115.993C126.543 112.632 124.973 108.43 124.973 103.831C124.973 92.9083 133.774 84.0197 144.586 84.0197C155.398 84.0197 164.198 92.9083 164.198 103.831C164.198 104.296 164.154 104.738 164.132 105.18L194.137 117.363C197.718 112.631 203.357 109.558 209.703 109.558C212.179 109.558 214.545 110.045 216.712 110.884L245.103 68.4534C241.808 64.8938 239.774 60.1617 239.774 54.9217C239.775 43.9992 248.576 35.1106 259.388 35.1106ZM267.635 54.9224C267.635 50.3234 263.942 46.5865 259.388 46.5865C254.855 46.5865 251.14 50.3234 251.14 54.9224C251.14 59.5213 254.855 63.2583 259.388 63.2583C263.943 63.2583 267.635 59.5213 267.635 54.9224ZM217.952 129.371C217.952 124.772 214.237 121.035 209.704 121.035C205.149 121.035 201.457 124.772 201.457 129.371C201.457 133.969 205.149 137.706 209.704 137.706C214.237 137.706 217.952 133.969 217.952 129.371ZM152.834 103.832C152.834 99.2332 149.141 95.4963 144.586 95.4963C140.054 95.4963 136.339 99.2332 136.339 103.832C136.339 108.431 140.054 112.168 144.586 112.168C149.142 112.168 152.834 108.431 152.834 103.832ZM107.86 170.055C107.86 165.478 104.167 161.741 99.6124 161.741C95.0576 161.741 91.3648 165.478 91.3648 170.055C91.3648 174.654 95.0576 178.391 99.6124 178.391C104.167 178.391 107.86 174.654 107.86 170.055Z" fill="#2D213F"/>
<path d="M99.6123 161.741C104.167 161.741 107.86 165.478 107.86 170.055C107.86 174.654 104.167 178.391 99.6123 178.391C95.0575 178.391 91.3647 174.654 91.3647 170.055C91.3647 165.478 95.0575 161.741 99.6123 161.741Z" fill="#FF5023"/>
<path d="M82.417 277.227V288.933C82.417 290.878 81.8066 292.416 80.5859 293.547C79.3734 294.679 77.7132 295.244 75.6055 295.244C73.5303 295.244 71.8823 294.695 70.6616 293.596C69.4409 292.498 68.8184 290.988 68.7939 289.067V277.227H72.4561V288.958C72.4561 290.121 72.7327 290.972 73.2861 291.509C73.8477 292.038 74.6208 292.302 75.6055 292.302C77.6644 292.302 78.7101 291.22 78.7427 289.055V277.227H82.417ZM89.314 295H85.6519V277.227H89.314V295ZM93.5986 296.526H90.9741L97.5171 277.227H100.142L93.5986 296.526ZM115.522 277.227V288.933C115.522 290.878 114.912 292.416 113.691 293.547C112.479 294.679 110.819 295.244 108.711 295.244C106.636 295.244 104.988 294.695 103.767 293.596C102.546 292.498 101.924 290.988 101.899 289.067V277.227H105.562V288.958C105.562 290.121 105.838 290.972 106.392 291.509C106.953 292.038 107.726 292.302 108.711 292.302C110.77 292.302 111.816 291.22 111.848 289.055V277.227H115.522ZM124.885 283.354L128.218 277.227H132.429L127.253 286.04L132.563 295H128.303L124.885 288.774L121.467 295H117.207L122.517 286.04L117.341 277.227H121.553L124.885 283.354ZM154.597 289.08C154.459 290.992 153.751 292.498 152.473 293.596C151.204 294.695 149.527 295.244 147.444 295.244C145.165 295.244 143.371 294.479 142.061 292.949C140.758 291.411 140.107 289.303 140.107 286.626V285.54C140.107 283.831 140.409 282.325 141.011 281.023C141.613 279.721 142.472 278.724 143.586 278.032C144.709 277.332 146.012 276.982 147.493 276.982C149.543 276.982 151.195 277.532 152.449 278.63C153.702 279.729 154.426 281.271 154.622 283.257H150.959C150.87 282.109 150.549 281.279 149.995 280.767C149.45 280.246 148.616 279.985 147.493 279.985C146.272 279.985 145.356 280.425 144.746 281.304C144.144 282.174 143.835 283.529 143.818 285.369V286.711C143.818 288.632 144.107 290.036 144.685 290.923C145.271 291.81 146.191 292.253 147.444 292.253C148.575 292.253 149.417 291.997 149.971 291.484C150.532 290.964 150.854 290.162 150.935 289.08H154.597ZM167.036 291.338H160.615L159.395 295H155.5L162.117 277.227H165.51L172.163 295H168.269L167.036 291.338ZM161.604 288.372H166.047L163.813 281.719L161.604 288.372ZM183.04 290.337C183.04 289.645 182.795 289.116 182.307 288.75C181.819 288.376 180.94 287.985 179.67 287.578C178.401 287.163 177.396 286.756 176.655 286.357C174.637 285.267 173.628 283.798 173.628 281.951C173.628 280.99 173.896 280.136 174.434 279.387C174.979 278.63 175.756 278.04 176.765 277.617C177.782 277.194 178.922 276.982 180.183 276.982C181.453 276.982 182.584 277.214 183.577 277.678C184.569 278.134 185.339 278.781 185.884 279.619C186.437 280.457 186.714 281.41 186.714 282.476H183.052C183.052 281.662 182.795 281.031 182.283 280.583C181.77 280.128 181.05 279.9 180.122 279.9C179.227 279.9 178.531 280.091 178.035 280.474C177.538 280.848 177.29 281.344 177.29 281.963C177.29 282.541 177.579 283.025 178.157 283.416C178.743 283.806 179.601 284.172 180.732 284.514C182.816 285.141 184.333 285.918 185.286 286.846C186.238 287.773 186.714 288.929 186.714 290.312C186.714 291.851 186.132 293.059 184.968 293.938C183.805 294.809 182.238 295.244 180.269 295.244C178.901 295.244 177.656 294.996 176.533 294.5C175.41 293.995 174.552 293.307 173.958 292.437C173.372 291.566 173.079 290.557 173.079 289.409H176.753C176.753 291.37 177.925 292.351 180.269 292.351C181.139 292.351 181.819 292.176 182.307 291.826C182.795 291.468 183.04 290.972 183.04 290.337ZM199.897 287.297H192.866V292.058H201.118V295H189.204V277.227H201.094V280.193H192.866V284.429H199.897V287.297ZM218.708 290.337C218.708 289.645 218.464 289.116 217.976 288.75C217.488 288.376 216.609 287.985 215.339 287.578C214.07 287.163 213.065 286.756 212.324 286.357C210.306 285.267 209.297 283.798 209.297 281.951C209.297 280.99 209.565 280.136 210.103 279.387C210.648 278.63 211.425 278.04 212.434 277.617C213.451 277.194 214.591 276.982 215.852 276.982C217.122 276.982 218.253 277.214 219.246 277.678C220.238 278.134 221.007 278.781 221.553 279.619C222.106 280.457 222.383 281.41 222.383 282.476H218.721C218.721 281.662 218.464 281.031 217.952 280.583C217.439 280.128 216.719 279.9 215.791 279.9C214.896 279.9 214.2 280.091 213.704 280.474C213.207 280.848 212.959 281.344 212.959 281.963C212.959 282.541 213.248 283.025 213.826 283.416C214.412 283.806 215.27 284.172 216.401 284.514C218.485 285.141 220.002 285.918 220.955 286.846C221.907 287.773 222.383 288.929 222.383 290.312C222.383 291.851 221.801 293.059 220.637 293.938C219.473 294.809 217.907 295.244 215.938 295.244C214.57 295.244 213.325 294.996 212.202 294.5C211.079 293.995 210.221 293.307 209.626 292.437C209.041 291.566 208.748 290.557 208.748 289.409H212.422C212.422 291.37 213.594 292.351 215.938 292.351C216.808 292.351 217.488 292.176 217.976 291.826C218.464 291.468 218.708 290.972 218.708 290.337ZM238.252 280.193H232.808V295H229.146V280.193H223.774V277.227H238.252V280.193ZM253.804 277.227V288.933C253.804 290.878 253.193 292.416 251.973 293.547C250.76 294.679 249.1 295.244 246.992 295.244C244.917 295.244 243.269 294.695 242.048 293.596C240.828 292.498 240.205 290.988 240.181 289.067V277.227H243.843V288.958C243.843 290.121 244.119 290.972 244.673 291.509C245.234 292.038 246.007 292.302 246.992 292.302C249.051 292.302 250.097 291.22 250.129 289.055V277.227H253.804ZM256.807 295V277.227H262.275C263.838 277.227 265.234 277.581 266.462 278.289C267.699 278.988 268.664 279.989 269.355 281.292C270.047 282.585 270.393 284.058 270.393 285.71V286.528C270.393 288.18 270.051 289.649 269.368 290.935C268.692 292.221 267.736 293.218 266.499 293.926C265.262 294.634 263.866 294.992 262.312 295H256.807ZM260.469 280.193V292.058H262.239C263.671 292.058 264.766 291.59 265.522 290.654C266.279 289.718 266.666 288.38 266.682 286.638V285.698C266.682 283.892 266.308 282.524 265.559 281.597C264.81 280.661 263.716 280.193 262.275 280.193H260.469ZM278.657 285.234L282.356 277.227H286.36L280.525 288.555V295H276.802V288.555L270.967 277.227H274.983L278.657 285.234Z" fill="#2A2E43"/>
</g>
</svg>
